<svg xmlns="http://www.w3.org/2000/svg" width="48" height="48" viewBox="0 0 48 48" fill="none">
  <circle cx="24" cy="24" r="22" fill="#863bff" stroke="#6b2dcc" stroke-width="1.5"/>
  <path d="M24 8l5.5 4-2 6.5h-7l-2-6.5z" fill="#6b2dcc"/>
  <path d="M35.5 17l1 6.5-5.5 4-4-3 2-6.5z" fill="#6b2dcc"/>
  <path d="M12.5 17l-1 6.5 5.5 4 4-3-2-6.5z" fill="#6b2dcc"/>
  <path d="M13 30.5l-1-7-4 5 2 7 5 1z" fill="#6b2dcc"/>
  <path d="M35 30.5l1-7 4 5-2 7-5 1z" fill="#6b2dcc"/>
  <path d="M24 40l-5.5-4 2-6.5h7l2 6.5z" fill="#6b2dcc"/>
  <path d="M24 8l-4.5 10.5h9L24 8z M29.5 12l5.5 5-4 7.5-7.5 0 M18.5 12l-5.5 5 4 7.5 7.5 0 M10 28l5 2.5 3.5-6 M38 28l-5 2.5-3.5-6 M18.5 36l5.5-5.5 5.5 5.5" stroke="#ede6ff" stroke-width="0.8" fill="none" stroke-linecap="round" stroke-linejoin="round" opacity="0.6"/>
  <circle cx="18" cy="14" r="6" fill="white" opacity="0.12"/>
</svg>
